<?xml version="1.0" encoding="utf-8"?>
<!-- Uploaded to: SVG Repo, www.svgrepo.com, Generator: SVG Repo Mixer Tools -->
<svg width="800px" height="800px" viewBox="0 0 1024 1024" class="icon"  version="1.1" xmlns="http://www.w3.org/2000/svg"><path d="M776.5 569.4c0 210.6-119.5 296.9-266.9 296.9s-267-86.3-267-296.9 267-550.3 267-550.3 266.9 339.7 266.9 550.3z" fill="#60C13D" /><path d="M509.6 876.2c-80.3 0-148-25-195.8-72.3-26-25.7-46-58-59.6-95.9-14.3-39.9-21.6-86.6-21.6-138.6 0-49.3 14.3-109.4 42.4-178.6 22.3-54.9 53.4-115.6 92.4-180.7C433.8 99.6 501 13.8 501.7 12.9c1.9-2.4 4.8-3.8 7.9-3.8s6 1.4 7.9 3.8c0.7 0.9 67.9 86.7 134.2 197.2 39 65 70.1 125.8 92.4 180.7 28.2 69.2 42.4 129.3 42.4 178.6 0 52-7.3 98.7-21.6 138.6-13.6 37.9-33.6 70.2-59.6 95.9-47.7 47.3-115.4 72.3-195.7 72.3z m0-840.7c-19.6 25.8-72.6 97.6-125 185.1-38.5 64.1-69.1 124-91 177.8-27.2 66.7-40.9 124.2-40.9 171 0 96.7 25.3 170.8 75.2 220.3 43.9 43.5 106.8 66.6 181.7 66.6s137.8-23 181.7-66.6c49.9-49.5 75.2-123.6 75.2-220.3 0-46.7-13.8-104.3-41-171.1-21.9-53.9-52.6-113.8-91.1-177.9C582 133 529.1 61.3 509.6 35.5z" fill="" /><path d="M509.6 1017.5c-5.5 0-10-4.5-10-10V218.8c0-5.5 4.5-10 10-10s10 4.5 10 10v788.6c0 5.6-4.5 10.1-10 10.1z" fill="" /><path d="M509.6 521.2c-2.7 0-5.5-1.1-7.4-3.3l-137.5-153c-3.7-4.1-3.4-10.4 0.8-14.1 4.1-3.7 10.4-3.4 14.1 0.8l137.5 153c3.7 4.1 3.4 10.4-0.8 14.1-2 1.7-4.3 2.5-6.7 2.5zM509.6 782.4c-2.8 0-5.6-1.2-7.6-3.5L308.7 552c-3.6-4.2-3.1-10.5 1.1-14.1 4.2-3.6 10.5-3.1 14.1 1.1l193.2 226.9c3.6 4.2 3.1 10.5-1.1 14.1-1.8 1.6-4.1 2.4-6.4 2.4zM509.6 368.2c-2.6 0-5.1-1-7.1-2.9-3.9-3.9-3.9-10.2 0-14.1l93.2-93.2c3.9-3.9 10.2-3.9 14.1 0 3.9 3.9 3.9 10.2 0 14.1l-93.2 93.2c-1.9 1.9-4.5 2.9-7 2.9zM518.6 642.6c-2.7 0-5.5-1.1-7.4-3.3-3.7-4.1-3.3-10.4 0.8-14.1l135.8-121.8c4.1-3.7 10.4-3.3 14.1 0.8 3.7 4.1 3.3 10.4-0.8 14.1L525.3 640c-1.9 1.7-4.3 2.6-6.7 2.6z" fill="" /></svg>